<?xml version="1.0" encoding="UTF-8" standalone="no"?>
<!-- Created with Inkscape (http://www.inkscape.org/) -->
<svg xmlns:svg="http://www.w3.org/2000/svg" xmlns="http://www.w3.org/2000/svg" version="1.1" width="800" height="330" id="Logo" xml:space="preserve"><defs id="Defs"/><g transform="matrix(1.25,0,0,-1.25,0,330)" id="GDC" style="display:inline"><path d="m 552.177,27.5815 c -33.102,0 -59.091,9.90312 -78.276,30.0082 -18.249,18.8758 -27.533,43.0039 -27.533,72.7028 0,30.013 10.522,55.074 31.245,74.871 21.97,20.734 50.434,31.253 85.395,31.253 21.654,0 39.6,-3.405 53.518,-10.519 l -0.926,-40.838 c -15.467,8.968 -32.175,13.611 -50.432,13.611 -22.585,0 -39.905,-6.803 -51.665,-20.417 -10.207,-11.451 -15.469,-26.301 -15.469,-44.554 0,-18.8739 5.576,-34.341 17.018,-47.0258 11.446,-12.682 26.612,-18.8762 45.479,-18.8762 17.322,0 34.338,4.6469 51.358,13.9262 L 624.573,49.2405 C 601.368,34.69634 577.236,27.5815 552.177,27.5815" id="C" style="fill:#231f20;fill-opacity:1;fill-rule:nonzero;stroke:none"/><path d="m 166.058,97.8764 0,-29.1469 c -6.806,-2.791 -16.092,-4.0191 -27.537,-4.0191 -19.489,0 -35.2714,7.1152 -47.3358,21.0313 -11.4442,13.3097 -17.0122,29.0859 -17.0122,47.9578 0,18.565 5.2543,33.411 16.0852,44.861 12.6848,13.614 31.5547,20.417 57.2378,20.417 18.251,0 36.196,-4.64 54.453,-13.916 l 0.919,41.761 c -20.723,6.5 -41.454,9.596 -62.49,9.596 -34.9608,0 -63.1182,-10.216 -85.0792,-30.635 C 33.3312,185.6765 22.5,160.6155 22.5,130.6065 22.5,101.2135 31.47344,76.7713 49.7305,57.5897 68.6,37.48658 94.2816,27.5815 126.148,27.5815 c 31.863,0 60.947,6.8082 87.245,20.7262 l 0,74.109 c 0,0 0.011,0.2328 0,0.6269 l 0,13.1259 -14.938,0 c -0.043,0.002 -0.079,0.007 -0.12,0.007 l -61.485,0 2.289,-14.4149 16.041,-6.6012 c 6.6,-2.7828 10.857,-5.5777 10.857,-17.2949 l 0.021,0.0109" id="G" style="fill:#231f20;fill-opacity:1;fill-rule:nonzero;stroke:none"/><path d="m 333.262,233.8315 -102.81,-0.022 0,-102.803 c 0,-56.7859 46.024,-102.791016 102.81,-102.791016 56.777,-0.025 102.802,46.005116 102.802,102.791016 0,56.791 -46.025,102.805 -102.802,102.825 m 0,-166.0031 c -34.908,0 -63.196,28.2781 -63.196,63.1831 l 0,63.193 63.196,0.015 c 34.902,-0.015 63.188,-28.295 63.188,-63.208 0,-34.905 -28.286,-63.1999 -63.188,-63.1831" id="D" style="fill:#231f20;fill-opacity:1;fill-rule:nonzero;stroke:none"/><path d="m 355.476,143.9855 c 0,6.567 -4.474,11.136 -9.805,11.136 -5.33,0 -9.804,-4.664 -9.804,-11.136 l 0,-21.4161 c 0,-6.568 4.379,-11.1367 9.804,-11.1367 5.331,0 9.805,4.5687 9.805,11.1367 l 0,21.4161 z m -9.709,23.7 c 13.135,0 23.32,-9.423 23.32,-22.082 l 0,-24.6529 c 0,-12.5652 -9.899,-22.082 -23.32,-22.082 -13.612,0 -23.415,9.6129 -23.415,22.082 l 0,24.6529 c 0,12.659 10.28,22.082 23.415,22.082" id="0-invisible" style="opacity:0;fill:#231f20;fill-opacity:1;fill-rule:nonzero;stroke:none"/><path d="m 292.479,166.5435 0,-12.755 7.22,0 0,-53.7781 13.04,0 0,66.5331 -20.26,0" id="1-invisible" style="opacity:0;fill:#231f20;fill-opacity:1;fill-rule:nonzero;stroke:none"/></g></svg>